<svg xmlns="http://www.w3.org/2000/svg" viewBox="0 0 200 200"><defs><style>.cls-1{fill:#df1c48;}.cls-1,.cls-2,.cls-3{stroke:#231f20;}.cls-1,.cls-2,.cls-3,.cls-4{stroke-miterlimit:10;}.cls-2{fill:#fff100;}.cls-3{fill:#ec81b3;}.cls-4{stroke:#000;}</style></defs><g id="Layer_21" data-name="Layer 21"><path class="cls-1" d="M67.46,157.09c21.32-.84,52.72-5.63,67.7-10.28s21.32-8.13,27.64-11.7a48.7,48.7,0,0,0,22.56-26.51c4.48-12.71,2.22-26.86-9.71-33.13a23.91,23.91,0,0,0-23.09,41.88l2,1.17a2.81,2.81,0,0,1,.76,4.18h0c-.88,1.23-13.9,12.26-33.88,20.91C104.87,150.76,84,154.14,67.46,157.09Z"/><path class="cls-2" d="M12.5,163c24.56-5.12,45.66-12.26,68.25-33.37C95.46,115.83,104,95.69,101.88,82.73v0c-.38-2.33-2.05-2.78-5-1.87-7,2.14-10.1,2.48-17,1.72a36,36,0,0,1,6.88-71.71A35.81,35.81,0,0,1,106.5,19.1h0c14,10.72,21.21,28.76,18.21,61-1.57,16.87-10.93,40.4-28.07,55C70.41,157.37,36.88,161.84,12.5,163Z"/><path class="cls-3" d="M18.6,155.15c16.67-8,23.45-19.36,25.14-22.63a3.36,3.36,0,0,0-2.6-4.86,18,18,0,0,1-15.76-15.54A18.41,18.41,0,0,1,40,92.05a17.89,17.89,0,0,1,12.12,2.07,18.07,18.07,0,0,1,9,15l.05,1.36c0,.44,0,.87,0,1.31C60.28,130.43,48.62,144.22,18.6,155.15Z"/><path id="A" class="cls-4" d="M24,189.34a2.82,2.82,0,0,0,0-5.63,5.63,5.63,0,1,1,5.63-5.63v8.45a2.82,2.82,0,0,0,5.63,0v-8.45A11.27,11.27,0,1,0,24,189.34Z"/><path id="A-2" data-name="A" class="cls-4" d="M91.55,166.82a2.82,2.82,0,0,0,0,5.63,5.63,5.63,0,1,1-5.63,5.63v-8.45a2.82,2.82,0,0,0-5.63,0v8.45a11.27,11.27,0,1,0,11.26-11.26Z"/><path class="cls-4" d="M63.4,178.08a11.26,11.26,0,1,0-22.52,0v8.45a2.82,2.82,0,0,0,5.63,0v-8.45a5.63,5.63,0,1,1,11.26,0v8.45a2.82,2.82,0,0,0,5.63,0Z"/><path class="cls-4" d="M69,169.63a2.82,2.82,0,0,1,5.63,0v16.9a2.82,2.82,0,0,1-5.63,0Z"/><path class="cls-4" d="M131,178.08a11.26,11.26,0,1,0-11.26,11.26h2.81a2.82,2.82,0,1,0,0-5.63h-2.81a5.63,5.63,0,1,1,4.87-8.45h-4.87a2.82,2.82,0,1,0,0,5.64h8.44A2.82,2.82,0,0,0,131,178.08Z"/><path class="cls-4" d="M187.28,178.08A11.27,11.27,0,1,0,176,189.34h2.82a2.82,2.82,0,0,0,0-5.63H176a5.63,5.63,0,1,1,4.88-8.45H176a2.82,2.82,0,0,0,0,5.64h8.45A2.82,2.82,0,0,0,187.28,178.08Z"/><path class="cls-4" d="M142.23,186.53a2.82,2.82,0,0,1-5.63,0v-8.45a11.26,11.26,0,1,1,22.52,0,2.82,2.82,0,1,1-5.63,0,5.63,5.63,0,1,0-11.26,0Z"/></g></svg>